<svg xmlns="http://www.w3.org/2000/svg" version="1.1" xmlns:xlink="http://www.w3.org/1999/xlink" xmlns:svgjs="http://svgjs.dev/svgjs" width="1500" height="389" viewBox="0 0 1500 389"><g transform="matrix(1,0,0,1,-2.4750008787908655,-1.5868985996634137)"><svg viewBox="0 0 293 76" data-background-color="#fee869" preserveAspectRatio="xMidYMid meet" height="389" width="1500" xmlns="http://www.w3.org/2000/svg" xmlns:xlink="http://www.w3.org/1999/xlink"><g id="tight-bounds" transform="matrix(1,0,0,1,0.48345017165715376,1.0189339919597842)"><svg viewBox="0 0 292.0330996566857 74.67070000000001" height="74.67070000000001" width="292.0330996566857"><g><svg viewBox="0 0 292.0330996566857 74.67070000000001" height="74.67070000000001" width="292.0330996566857"><g><svg viewBox="0 0 292.0330996566857 74.67070000000001" height="74.67070000000001" width="292.0330996566857"><g id="textblocktransform"><svg viewBox="0 0 292.0330996566857 74.67070000000001" height="74.67070000000001" width="292.0330996566857" id="textblock"><g><svg viewBox="0 0 292.0330996566857 74.67070000000001" height="74.67070000000001" width="292.0330996566857"><g><svg><g></g><g></g></svg></g><g><svg><g><svg></svg></g><g></g></svg></g><g id="text-0"><svg viewBox="0 0 292.0330996566857 74.67070000000001" height="74.67070000000001" width="292.0330996566857"><g transform="matrix(1,0,0,1,0,12.910349999999998)"><svg width="140.95000000000002" viewBox="4.05 -35.85 140.94 46.150000000000006" height="46.15000000000001" data-palette-color="#222222"><path d="M10.7-34.55L10.7-34.55Q13.2-34.55 15.73-34.55 18.25-34.55 20.73-34.48 23.2-34.4 25.5-34.25L25.5-34.25 25.3-30.8 11.45-30.8Q9.9-30.8 9.18-30.03 8.45-29.25 8.45-27.5L8.45-27.5 8.45-7Q8.45-5.25 9.18-4.45 9.9-3.65 11.45-3.65L11.45-3.65 25.3-3.65 25.5-0.25Q23.2-0.1 20.73-0.05 18.25 0 15.73 0.03 13.2 0.05 10.7 0.05L10.7 0.05Q7.65 0.05 5.88-1.58 4.1-3.2 4.05-5.95L4.05-5.95 4.05-28.55Q4.1-31.35 5.88-32.95 7.65-34.55 10.7-34.55ZM4.95-16.45L4.95-20 23.35-20 23.35-16.45 4.95-16.45ZM40-24.95L40-24.95Q42.4-24.95 44.75-24.33 47.1-23.7 49.25-22.4L49.25-22.4 49-19.75Q46.65-20.45 44.85-20.85 43.05-21.25 41-21.25L41-21.25Q38.9-21.25 37.62-20.53 36.35-19.8 35.75-17.85 35.15-15.9 35.15-12.3L35.15-12.3Q35.15-8.7 35.72-6.7 36.3-4.7 37.55-3.9 38.8-3.1 40.75-3.1L40.75-3.1Q42.2-3.1 43.37-3.48 44.55-3.85 45.87-4.7 47.2-5.55 49-6.85L49-6.85 49.4-3.85Q47.4-2 44.85-0.7 42.3 0.6 39.35 0.6L39.35 0.6Q34.75 0.6 32.77-2.65 30.8-5.9 30.8-12.25L30.8-12.25Q30.8-17 31.8-19.78 32.8-22.55 34.85-23.75 36.9-24.95 40-24.95ZM48.45-35L52.7-35 52.7 0 49.4 0 48.9-4.25 48.45-4.6 48.45-21.3 48.75-22.05Q48.55-23.45 48.5-24.75 48.45-26.05 48.45-27.5L48.45-27.5 48.45-35ZM60.75-24.35L64.95-24.35 64.95 0 60.75 0 60.75-24.35ZM61.85-34.7L63.85-34.7Q65.15-34.7 65.15-33.4L65.15-33.4 65.15-30.55Q65.15-29.25 63.85-29.25L63.85-29.25 61.85-29.25Q60.55-29.25 60.55-30.55L60.55-30.55 60.55-33.4Q60.55-34.7 61.85-34.7L61.85-34.7ZM74.79-31.55L79.04-31.55 79.04-6.7Q79.04-4.95 79.79-4.2 80.54-3.45 82.34-3.45L82.34-3.45 86.04-3.45 86.54-0.2Q85.74 0 84.69 0.15 83.64 0.3 82.64 0.38 81.64 0.45 81.04 0.45L81.04 0.45Q77.99 0.45 76.39-1.25 74.79-2.95 74.79-6.15L74.79-6.15 74.79-31.55ZM75.19-24.35L86.79-24.35 86.79-21 70.39-21 70.39-24.1 75.19-24.35ZM92.19-24.35L96.39-24.35 96.39 0 92.19 0 92.19-24.35ZM93.29-34.7L95.29-34.7Q96.59-34.7 96.59-33.4L96.59-33.4 96.59-30.55Q96.59-29.25 95.29-29.25L95.29-29.25 93.29-29.25Q91.99-29.25 91.99-30.55L91.99-30.55 91.99-33.4Q91.99-34.7 93.29-34.7L93.29-34.7ZM113.39-35.85L113.39-35.85Q114.19-35.85 115.44-35.83 116.69-35.8 117.99-35.73 119.29-35.65 120.24-35.5L120.24-35.5 119.89-32.35 114.89-32.35Q112.49-32.35 111.51-31.4 110.54-30.45 110.54-28.25L110.54-28.25 110.54 0 106.29 0 106.29-28.7Q106.29-31 106.99-32.58 107.69-34.15 109.24-35 110.79-35.85 113.39-35.85ZM106.54-24.35L118.34-24.35 118.34-21 101.89-21 101.89-24.1 106.54-24.35ZM140.39-24.35L144.99-24.35 135.24 1.35Q134.64 2.95 133.74 4.5 132.84 6.05 131.56 7.33 130.29 8.6 128.56 9.4 126.84 10.2 124.59 10.3L124.59 10.3 124.19 7.5Q127.14 6.55 128.74 4.95 130.34 3.35 131.29 1.05L131.29 1.05 132.49-1.85Q132.89-2.85 133.29-4.05 133.69-5.25 134.04-6.2L134.04-6.2 140.39-24.35ZM120.39-24.35L124.94-24.35 131.39-6.2Q131.64-5.45 131.89-4.73 132.14-4 132.29-3.25L132.29-3.25 133.44-3.25 132.04 0 130.74 0Q130.24 0 129.81-0.3 129.39-0.6 129.24-1.1L129.24-1.1 120.39-24.35Z" opacity="1" transform="matrix(1,0,0,1,0,0)" fill="#222222" class="undefined-tk-0" data-fill-palette-color="primary"></path></svg></g><g><svg xmlns="http://www.w3.org/2000/svg" xmlns:xlink="http://www.w3.org/1999/xlink" version="1.1" x="158.57930000000002" y="0" viewBox="11.017823632605122 11.461749422187646 37.96369815853941 37.06825057781236" style="enable-background:new 0 0 60 60;" xml:space="preserve" height="74.67070000000001" width="76.47449965668567" class="icon-dxe-0" data-fill-palette-color="accent" id="dxe-0"><path d="M48.85 34.1L35.82 11.92A0.945 0.945 0 0 0 34.2 11.92L30 19.08 25.79 11.93A0.945 0.945 0 0 0 24.17 11.93L11.15 34.1C10.93 34.47 10.99 34.93 11.29 35.23L24.32 48.26C24.5 48.44 24.74 48.53 24.98 48.53S25.46 48.44 25.64 48.26L30 43.91 34.35 48.26C34.53 48.44 34.77 48.53 35.01 48.53S35.49 48.44 35.67 48.26L48.7 35.23C49.01 34.93 49.07 34.46 48.85 34.1M24.99 46.28L13.13 34.42 24.99 14.24 28.92 20.92 21.17 34.1C20.95 34.47 21.01 34.93 21.31 35.23L28.67 42.59zM30 22.77L36.85 34.42 30 41.27 23.15 34.42zM35.01 46.28L31.32 42.59 38.68 35.23C38.98 34.93 39.04 34.46 38.82 34.1L31.08 20.93 35.01 14.25 46.87 34.43z" fill="#222222" data-fill-palette-color="accent"></path></svg></g><g transform="matrix(1,0,0,1,252.68309965668567,9.785349999999998)"><svg width="39.35000000000001" viewBox="0.5 -34.5 39.35 34.5" height="34.50000000000001" data-palette-color="#000000"><path d="M13.25-34.5L17.85-34.5Q18.45-34.5 18.9-34.18 19.35-33.85 19.5-33.3L19.5-33.3 30.6 0 26.05 0 17.1-28.3Q16.9-29 16.68-29.73 16.45-30.45 16.25-31.1L16.25-31.1 14.85-31.1Q14.65-30.45 14.45-29.73 14.25-29 14-28.3L14-28.3 5.05 0 0.5 0 11.6-33.3Q11.75-33.85 12.2-34.18 12.65-34.5 13.25-34.5L13.25-34.5ZM6.75-14.6L24.25-14.6 24.25-10.8 6.75-10.8 6.75-14.6ZM35.45-34.5L39.85-34.5 39.85 0 35.45 0 35.45-34.5Z" opacity="1" transform="matrix(1,0,0,1,0,0)" fill="#000000" class="undefined-tk-1" data-fill-palette-color="secondary"></path></svg></g></svg></g></svg></g></svg></g></svg></g><g></g></svg></g><defs></defs></svg><rect width="292.0330996566857" height="74.67070000000001" fill="none" stroke="none" visibility="hidden"></rect></g></svg></g></svg>